<?xml version="1.0" standalone="no"?>
<!DOCTYPE svg PUBLIC "-//W3C//DTD SVG 20010904//EN"
 "http://www.w3.org/TR/2001/REC-SVG-20010904/DTD/svg10.dtd">
<svg version="1.0" xmlns="http://www.w3.org/2000/svg"
 width="1280.000000pt" height="1280.000000pt" viewBox="0 0 1280.000000 1280.000000"
 preserveAspectRatio="xMidYMid meet">
<metadata>
Created by potrace 1.11, written by Peter Selinger 2001-2013
</metadata>
<g transform="translate(0.000000,1280.000000) scale(0.100000,-0.100000)"
fill="#000000" stroke="none">
<path d="M5995 12769 c-49 -4 -107 -9 -128 -10 -21 -2 -42 -8 -46 -13 -5 -6
-25 -67 -46 -136 -20 -69 -45 -152 -55 -185 -47 -154 -128 -423 -169 -560 -15
-49 -65 -215 -111 -367 l-84 -277 -115 -27 c-244 -56 -527 -144 -750 -233 -57
-23 -110 -40 -117 -37 -7 3 -302 222 -655 487 l-642 481 -31 -15 c-130 -66
-463 -287 -665 -440 -140 -106 -293 -232 -299 -247 -1 -4 14 -52 33 -106 20
-55 48 -130 62 -169 14 -38 36 -97 48 -130 13 -33 46 -123 73 -200 28 -77 82
-225 120 -330 123 -336 202 -557 202 -568 0 -5 -40 -55 -88 -111 -193 -222
-369 -462 -492 -671 -13 -22 -25 -42 -26 -44 -3 -3 -140 -2 -309 4 -49 2 -200
6 -335 10 -135 3 -299 8 -365 10 -66 2 -235 6 -375 10 l-256 7 -11 -24 c-6
-13 -18 -39 -26 -58 -8 -19 -24 -55 -35 -80 -49 -111 -159 -427 -216 -620 -34
-115 -87 -322 -83 -326 5 -5 63 -44 702 -472 341 -228 624 -418 629 -423 5 -4
8 -41 6 -81 -10 -213 -1 -742 14 -843 4 -25 56 12 -717 -505 -633 -423 -635
-425 -630 -455 3 -16 30 -118 59 -225 82 -299 172 -558 298 -853 l16 -37 163
4 c283 9 560 17 1112 31 138 4 270 8 294 9 40 2 48 -1 78 -33 30 -33 123 -166
123 -177 0 -5 42 -66 51 -74 3 -3 20 -27 39 -55 31 -47 227 -304 240 -315 3
-3 29 -32 57 -65 l52 -61 -45 -124 c-101 -276 -157 -429 -264 -720 -21 -58
-84 -232 -140 -386 l-103 -282 39 -35 c204 -183 527 -417 903 -653 l50 -32
578 435 c318 240 610 459 648 488 46 34 75 49 85 45 23 -12 243 -95 355 -135
91 -32 397 -123 470 -139 102 -23 101 -23 118 -79 8 -28 59 -196 112 -372 53
-176 103 -340 110 -365 67 -231 225 -744 232 -750 8 -8 58 -13 248 -28 50 -3
232 -7 405 -7 262 0 371 3 577 17 11 1 23 22 29 53 1 6 45 154 99 330 53 176
119 394 147 485 27 91 70 233 95 315 24 83 54 179 65 215 11 36 24 82 30 102
10 36 12 37 82 53 39 9 80 19 91 21 128 24 498 142 697 221 l117 46 35 -24
c19 -13 313 -233 653 -488 l617 -465 50 28 c68 37 152 90 326 204 207 136 364
253 598 448 l25 21 -103 284 c-56 156 -115 318 -130 359 -162 440 -310 854
-310 863 0 7 12 26 28 42 177 194 369 446 502 660 68 109 89 137 99 131 4 -3
119 -7 256 -11 252 -6 406 -10 725 -20 96 -3 279 -7 406 -10 l231 -6 26 58
c61 136 124 302 193 511 82 244 159 531 147 542 -4 4 -303 204 -663 445 -360
241 -659 441 -663 445 -11 9 -12 79 -4 200 6 93 11 300 7 310 -1 3 -3 37 -5
75 -6 158 -17 340 -21 346 -2 4 2 13 9 21 8 7 314 213 680 458 662 443 665
445 660 475 -3 17 -30 118 -59 225 -82 299 -172 558 -298 853 l-16 37 -163 -4
c-283 -9 -560 -17 -1112 -31 -137 -4 -270 -8 -294 -9 -40 -2 -48 1 -78 33 -30
33 -123 166 -123 177 0 5 -42 66 -51 74 -3 3 -20 28 -39 55 -31 47 -227 304
-240 315 -3 3 -29 32 -57 65 l-52 61 45 124 c25 69 64 175 86 235 22 61 52
144 68 185 15 41 45 122 65 180 21 58 43 119 50 135 7 17 64 171 126 344 97
269 111 315 98 325 -8 6 -66 54 -129 107 -210 174 -474 363 -733 522 -59 37
-112 67 -117 67 -5 0 -217 -156 -471 -347 -254 -192 -543 -409 -643 -484
l-181 -136 -45 18 c-163 65 -217 85 -319 121 -151 53 -246 82 -425 128 -81 21
-149 40 -150 42 -7 11 -50 151 -146 473 -61 204 -121 404 -134 445 -12 41 -60
199 -106 351 -45 152 -88 276 -94 276 -14 0 -161 14 -206 20 -67 8 -766 10
-855 2z m2222 -2912 c71 -37 114 -76 147 -136 37 -69 40 -84 40 -176 0 -117
-43 -199 -138 -264 -176 -121 -421 -60 -513 127 -24 50 -28 69 -28 147 0 102
13 139 78 218 37 44 103 87 167 108 14 5 63 7 110 5 69 -2 95 -8 137 -29z
m-1522 -1437 c226 -35 379 -78 563 -157 258 -111 452 -243 658 -447 229 -228
391 -486 495 -789 30 -88 63 -211 74 -280 3 -17 8 -44 11 -59 15 -76 36 -367
30 -416 -3 -20 -7 -62 -11 -92 -20 -192 -92 -433 -190 -635 -269 -556 -761
-956 -1380 -1120 -33 -9 -73 -18 -90 -21 -16 -3 -40 -7 -52 -9 -13 -3 -49 -8
-80 -11 -32 -4 -78 -10 -103 -14 -48 -9 -422 -5 -480 4 -19 4 -62 11 -95 16
-103 17 -118 20 -212 45 -197 52 -432 155 -596 262 -364 237 -655 583 -799
948 -11 28 -26 64 -33 80 -29 63 -91 302 -101 388 -4 29 -8 54 -9 57 -6 10
-20 243 -20 315 2 171 52 408 136 635 27 72 147 298 202 382 223 334 547 602
922 763 93 39 262 98 316 109 13 3 56 12 94 20 39 9 93 19 120 22 28 3 75 10
105 14 74 10 438 4 525 -10z m-3401 -129 c157 -77 234 -261 172 -413 -80 -195
-290 -277 -482 -186 -156 73 -232 276 -162 430 84 182 293 257 472 169z m6487
-3167 c240 -94 301 -399 112 -564 -65 -58 -137 -84 -228 -85 -147 0 -254 64
-317 192 -28 58 -33 77 -32 142 0 88 28 161 85 222 99 106 252 143 380 93z
m-4915 -1565 c71 -27 146 -96 181 -167 24 -50 28 -69 28 -147 0 -69 -5 -100
-19 -130 -34 -70 -95 -134 -160 -168 -57 -30 -68 -32 -161 -32 -90 0 -105 3
-152 27 -72 38 -114 78 -147 137 -37 69 -40 84 -40 176 -1 68 4 89 28 138 78
158 270 230 442 166z"/>
</g>
</svg>
